<?xml version="1.0" encoding="utf-8"?>
<!-- Generator: Adobe Illustrator 18.1.1, SVG Export Plug-In . SVG Version: 6.00 Build 0)  -->
<svg version="1.1" id="Layer_1" xmlns="http://www.w3.org/2000/svg" xmlns:xlink="http://www.w3.org/1999/xlink" x="0px" y="0px"
	 viewBox="317.8 601.8 164.5 75.4" enable-background="new 317.8 601.8 164.5 75.4" xml:space="preserve">
<path fill="#FFFFFF" d="M431.7,607.4h-4.8v-1.5h4.8V607.4z M439.3,604.2c1.2,0,2.2,0.4,2.8,1.1s0.9,1.8,0.9,3.1v8.6h-4.3v-1.3h2.7
	v-7.3c0-1.9-0.9-2.9-2.6-2.9c-0.3,0-0.6,0.1-0.9,0.2c-0.3,0.1-0.5,0.2-0.7,0.4c-0.4,0.3-0.7,0.6-0.9,0.9l-0.1,0.2l-0.9,9.9h-1.6
	l0.9-9.7c0,0,0-0.1,0-0.2c0-0.1,0-0.4-0.1-0.9c-0.1-0.5-0.2-0.9-0.3-1.2l-0.3-0.6h1.6c0.2,0.3,0.3,0.7,0.4,1.3h0.1
	c0.3-0.4,0.7-0.7,1.2-1c0.2-0.1,0.6-0.3,1-0.4C438.4,604.3,438.8,604.2,439.3,604.2z M452,604.4h6.6v1.3l-1.7,6.4l-1,4.9h-1.6l1-4.9
	l1.7-6.4h-6.6v-3.8h1.6V604.4z M460.7,617v-12.6c1.5-0.1,3-0.1,4.3-0.1c1.2,0,2.1,0.2,2.9,0.6c0.8,0.4,1.4,1,1.7,1.9
	c0.2,0.5,0.2,1,0.2,1.6v8.8h-1.6v-8.8c0-1.7-1.2-2.6-3.5-2.6l-2.5,0.1V617H460.7z M482,606.7c0.2,0.5,0.2,1,0.2,1.6v8.8h-1.6v-8.8
	c0-1.7-1.2-2.6-3.5-2.6c-1,0-2.2,0-3.4,0.1l-0.7,0v-1.4c1.5-0.1,2.9-0.1,4.2-0.1s2.3,0.2,3.1,0.6C481.1,605.2,481.7,605.8,482,606.7
	z M474.7,617H473v-8h1.6V617z"/>
<path fill="#FFFFFF" d="M335.7,637.1c2.9-5.5,7.6-8.2,14-8.2c6.4,0,11.4,2,14.8,6.1c3.5,4.1,5.3,9.9,5.3,17.5
	c0,7.6-2.2,13.6-6.6,18.1c-4.4,4.5-10.7,6.8-18.9,6.8c-8.2,0-14.6-2.7-19.4-8.2c-4.7-5.5-7.1-13.1-7.1-22.9
	c0-14.8,3.2-25.5,9.6-32.2c3.2-3.4,7.1-5.9,11.7-7.5c4.6-1.6,9.9-2.4,16.1-2.5c2.8,0,6.2,0.3,10.1,0.8v15.1
	c-3.2-0.6-6.7-0.9-10.6-0.9c-6.4,0-11.2,1.4-14.4,4.2c-3.2,2.8-4.9,7.4-5.2,13.8H335.7z M351.1,652.3c0-5.8-2.2-8.7-6.7-8.7
	c-2.2,0-4,0.7-5.4,2.2c-1.4,1.5-2.1,3.3-2.1,5.5c0,3.1,0.7,5.7,2,7.7c1.3,2,3.1,3,5.2,3c2.2,0,3.9-0.8,5.1-2.4
	C350.5,658,351.1,655.6,351.1,652.3L351.1,652.3z M406.4,649.6c-2.5,2.1-6.3,3.2-11.2,3.2c-6.2,0-11.1-2.1-14.5-6.2
	c-3.5-4.1-5.2-9.8-5.2-17c0-7.9,2.3-14.1,6.8-18.6c4.5-4.5,10.7-6.7,18.5-6.7c8.7,0,15.5,2.9,20.2,8.7c4.8,5.8,7.2,14,7.2,24.7
	c0,13.9-3,24-9,30.3c-6,6.3-15.6,9.4-28.9,9.4c-4.5,0-7.8-0.2-10-0.5v-15.2c2.7,0.5,5.5,0.8,8.4,0.8c7,0,12.3-1.4,16-4.3
	c3.7-2.9,5.7-7.4,6-13.4h-0.6C408.9,646.9,407.7,648.6,406.4,649.6L406.4,649.6z M409,630.3c0-2.9-0.7-5.3-2.2-7.5
	c-1.4-2.1-3.2-3.1-5.4-3.1c-2.2,0-4,0.8-5.2,2.4c-1.3,1.6-1.9,3.9-1.9,6.9c0,3,0.6,5.3,1.8,6.8c1.2,1.5,2.8,2.3,5,2.3
	c2.2,0,4.1-0.8,5.7-2.3C408.2,634.3,409,632.4,409,630.3L409,630.3z"/>
<path fill="#FFFFFF" d="M468.5,623.2v4.4c4.2,0.2,8.5,1.3,12.9,3.2l-3.9,9.2c-4.4-2-8.5-3-12.1-3c-1.7,0-2.9,0.2-3.6,0.6
	c-0.7,0.4-1.1,1.1-1.1,2c0,0.9,0.5,1.7,1.6,2.3c1.1,0.6,3.4,1.6,6.9,2.9c4.4,1.5,7.6,3.3,9.6,5.4c2,2.1,3,4.7,3,7.9
	c0,3.6-1.2,6.6-3.5,8.8c-2.3,2.2-5.6,3.6-10,4.2v6.2h-6.7v-6c-4.8-0.2-9.3-1.3-13.6-3.2v-10.7c2.5,1.2,5.2,2.3,8.1,3.2
	c2.9,0.9,5.4,1.3,7.4,1.3c2,0,3.5-0.2,4.3-0.7s1.3-1.2,1.2-2.2c0-1-0.6-1.8-1.8-2.5c-1.2-0.7-3.5-1.6-6.9-2.9
	c-3.4-1.3-6-2.5-7.7-3.8c-1.7-1.3-2.9-2.7-3.7-4.3c-0.8-1.6-1.1-3.5-1.1-5.8c0-7.1,4.6-11.1,13.7-12v-4.4H468.5z"/>
</svg>
