<?xml version="1.0" encoding="utf-8"?>
<!-- Generator: Adobe Illustrator 18.1.1, SVG Export Plug-In . SVG Version: 6.00 Build 0)  -->
<svg version="1.1" id="Layer_1" xmlns="http://www.w3.org/2000/svg" xmlns:xlink="http://www.w3.org/1999/xlink" x="0px" y="0px"
	 viewBox="313 591 174 95.8" enable-background="new 313 591 174 95.8" xml:space="preserve">
<path fill="#FFFFFF" d="M319,671.6c-0.7,1-1.3,2.1-1.7,3.3c-0.4,1.2-0.6,2.4-0.6,3.7c0,1.3,0.2,2.5,0.6,3.7c0.4,1.2,0.9,2.3,1.7,3.3
	h-1.2c-0.8-0.9-1.3-1.9-1.7-3.1c-0.4-1.2-0.6-2.5-0.6-3.8c0-1.4,0.2-2.7,0.6-3.9c0.4-1.2,1-2.3,1.7-3.2H319L319,671.6z M320.8,683
	v-10c0.9-0.1,2.1-0.2,3.5-0.2c2.6,0,3.9,0.9,3.9,2.7v7.5H320.8z M326.8,682v-6.3c0-0.3-0.1-0.6-0.2-0.8c-0.1-0.2-0.2-0.4-0.4-0.5
	c-0.2-0.1-0.4-0.2-0.6-0.3c-0.3-0.1-0.5-0.1-0.7-0.1c-0.2,0-0.5,0-0.8,0c-0.6,0-1.2,0-1.7,0.1l-0.3,0v8H326.8z M330.5,679.6v-6.7
	h1.3v5.3l-1,1.3H330.5z M336.8,674.2c-0.2-0.3-0.6-0.4-1.2-0.4c-0.3,0-0.6,0-1,0.1v-1c0.4-0.1,0.9-0.2,1.4-0.2
	c1.6,0,2.4,0.9,2.4,2.7v5.1c0,0.4,0,0.8-0.1,1.2c0,0.4-0.1,0.7-0.2,0.9l-0.1,0.3h-4.6v-1h3.5c0.1-0.4,0.2-0.9,0.2-1.5v-5
	C337.2,674.9,337.1,674.5,336.8,674.2L336.8,674.2z M342.3,683H341v-10.1h1.3V683z M348.7,682c1.1,0,1.9-0.4,2.7-1.1
	c0.7-0.8,1.1-1.9,1.3-3.5l0.4-4.4h1.3l-0.4,4.4c-0.1,0.7-0.2,1.3-0.3,1.8c-0.2,0.5-0.3,1-0.5,1.3c-0.2,0.3-0.4,0.7-0.7,1
	s-0.6,0.6-1,0.8c-0.4,0.2-0.8,0.4-1.3,0.6c-0.5,0.1-1.1,0.2-1.7,0.2h-3.3l-0.8-10.1h1.3l0.5,5.6l1-0.3c0.8-0.3,1.3-1,1.4-2.2
	l0.3-3.1h1.3l-0.3,2.6c0,0.4-0.1,0.7-0.1,1c-0.1,0.3-0.2,0.6-0.3,0.9c-0.1,0.3-0.3,0.6-0.5,0.8c-0.2,0.2-0.4,0.4-0.7,0.6
	c-0.3,0.2-0.7,0.3-1,0.4l-1,0.3l0.2,2.4H348.7z M360.4,683v-10c0.9-0.1,2.1-0.2,3.5-0.2c2.6,0,3.9,0.9,3.9,2.7v7.5H360.4z
	 M366.5,682v-6.3c0-0.3-0.1-0.6-0.2-0.8c-0.1-0.2-0.2-0.4-0.4-0.5c-0.2-0.1-0.4-0.2-0.6-0.3c-0.3-0.1-0.5-0.1-0.7-0.1
	c-0.2,0-0.5,0-0.8,0c-0.6,0-1.2,0-1.7,0.1l-0.3,0v8H366.5z M370.1,679.6v-6.7h1.3v5.3l-1,1.3H370.1z M380.2,672.9v0.9
	c-1.1,0.3-1.6,1.1-1.6,2.2v6.9h-1.3v-6.9c0-0.3,0-0.6,0.1-0.8c0.1-0.3,0.2-0.5,0.3-0.6c0.2-0.3,0.4-0.5,0.6-0.6l0.1-0.1v0h-5.5v-1
	H380.2z M383.2,672.9l1.2,4.5c0.1,0.7,0.5,2.1,0.9,4.2c1.5-0.6,2.4-2,2.6-4.3l0.4-4.4h1.3l-0.4,4.4c-0.1,0.7-0.2,1.2-0.3,1.7
	c-0.1,0.5-0.3,0.9-0.4,1.2c-0.2,0.3-0.4,0.6-0.6,0.9c-0.3,0.3-0.6,0.6-0.9,0.8c-0.3,0.2-0.8,0.4-1.3,0.6c-0.5,0.2-1,0.3-1.7,0.4
	l-2.9,0.4v-1l3.1-0.5l-2.4-9H383.2z M391.6,679.6v-6.7h1.3v5.3l-1,1.3H391.6z M395.8,672.9h5.3v1l-1.4,5.2l-0.8,3.9h-1.3l0.8-3.9
	l1.4-5.2h-5.3v-3.1h1.3V672.9z M406.3,676.4c0-0.6,0.1-1.1,0.3-1.6c0.2-0.5,0.5-0.8,0.9-1.1c0.4-0.3,0.8-0.5,1.2-0.7
	s0.9-0.2,1.4-0.2c0.5,0,1,0.1,1.5,0.3c0.5,0.2,0.9,0.5,1.2,0.9c0.4,0.4,0.6,1,0.8,1.6c0.2,0.7,0.3,1.5,0.3,2.3v8.9h-1.3V678
	c0-1.1-0.2-2.1-0.5-2.8c-0.2-0.4-0.5-0.7-0.8-0.9c-0.3-0.2-0.7-0.3-1.2-0.3c-0.4,0-0.8,0.1-1.1,0.2c-0.3,0.1-0.6,0.2-0.7,0.4
	c-0.2,0.2-0.3,0.4-0.5,0.6c-0.2,0.4-0.4,0.9-0.4,1.3c0,0.7,0.2,1.2,0.5,1.6c0.3,0.4,0.8,0.6,1.5,0.7l0.3,0.1l-0.2,1l-0.3,0
	c-0.9-0.1-1.6-0.5-2.2-1C406.5,678.1,406.3,677.3,406.3,676.4z M417.7,683h-1.3v-10.1h1.3V683z M419.7,676.4c0-0.6,0.1-1.1,0.3-1.6
	c0.2-0.5,0.5-0.8,0.9-1.1c0.4-0.3,0.8-0.5,1.2-0.7c0.4-0.2,0.9-0.2,1.3-0.2c0.5,0,0.9,0.1,1.3,0.2c0.4,0.1,0.7,0.3,1.1,0.6
	c0.3,0.3,0.6,0.6,0.9,1c0.2,0.4,0.4,0.9,0.6,1.5c0.1,0.6,0.2,1.2,0.2,1.9c0,0.7-0.1,1.4-0.2,1.9c-0.1,0.6-0.3,1.1-0.6,1.5
	c-0.2,0.4-0.5,0.7-0.9,1c-0.6,0.5-1.4,0.8-2.3,0.8c-0.9,0-1.7-0.1-2.5-0.2l-0.4-0.1v-1.1c0,0,0.1,0,0.4,0.1c0.8,0.1,1.7,0.2,2.5,0.2
	c0.4,0,0.7-0.1,1.1-0.2c0.3-0.2,0.6-0.4,0.7-0.6c0.2-0.3,0.3-0.6,0.5-0.9c0.2-0.6,0.3-1.4,0.3-2.3c0-1.1-0.2-2.1-0.5-2.8
	c-0.2-0.4-0.5-0.7-0.8-0.9c-0.3-0.2-0.7-0.3-1.2-0.3c-0.4,0-0.8,0.1-1.1,0.2c-0.3,0.1-0.6,0.2-0.7,0.4c-0.2,0.2-0.3,0.4-0.5,0.6
	c-0.2,0.4-0.4,0.9-0.4,1.4c0,0.7,0.2,1.2,0.5,1.6s0.8,0.6,1.5,0.7l0.3,0.1l-0.2,1l-0.3,0c-0.9-0.1-1.6-0.5-2.2-1
	C419.9,678.1,419.7,677.3,419.7,676.4z M429.6,672.9c0.4-0.1,0.8-0.1,1.2-0.1c0.4,0,0.8,0.1,1.2,0.2c0.4,0.1,0.7,0.2,0.9,0.4
	c0.3,0.2,0.5,0.4,0.7,0.6c0.2,0.2,0.4,0.5,0.5,0.7c0.1,0.3,0.2,0.5,0.3,0.8c0.1,0.5,0.2,1,0.2,1.6v1.7c0,0.3,0,0.6-0.1,1
	c-0.1,0.4-0.1,0.7-0.2,0.9c-0.1,0.3-0.2,0.5-0.4,0.9c-0.2,0.3-0.4,0.6-0.7,0.8c-0.3,0.2-0.6,0.4-1,0.5c-0.4,0.1-0.9,0.2-1.4,0.2
	c-0.5,0-0.9,0-1.3-0.1c-0.4,0-0.6-0.1-0.8-0.1l-0.2-0.1v-1.2c0.7,0.2,1.4,0.3,2.2,0.3c0.3,0,0.6,0,0.9-0.1c0.3-0.1,0.5-0.2,0.6-0.3
	c0.2-0.1,0.3-0.3,0.4-0.5c0.1-0.2,0.2-0.4,0.3-0.6c0.1-0.2,0.1-0.4,0.2-0.6c0.1-0.3,0.1-0.7,0.1-1v-1.5c0-0.7-0.1-1.2-0.2-1.7
	c-0.1-0.2-0.2-0.4-0.3-0.6c-0.1-0.2-0.3-0.4-0.4-0.5c-0.2-0.1-0.4-0.3-0.7-0.4c-0.3-0.1-0.6-0.1-1-0.1s-0.8,0-1.1,0.1
	c-0.4,0.1-0.6,0.1-0.8,0.2l-0.2,0.1v-1.2c0.1,0,0.1-0.1,0.2-0.1C429,673,429.2,672.9,429.6,672.9z M437.1,671.6
	c0.8,0.9,1.4,2,1.8,3.2c0.4,1.2,0.6,2.5,0.6,3.9c0,1.4-0.2,2.6-0.6,3.8c-0.4,1.2-1,2.2-1.7,3.1h-1.2c0.7-1,1.3-2.1,1.7-3.3
	c0.4-1.2,0.6-2.4,0.6-3.7c0-1.3-0.2-2.5-0.6-3.7c-0.4-1.2-0.9-2.3-1.7-3.3H437.1z M452.7,674.7c0.1,0.4,0.2,0.8,0.2,1.2v7h-1.3v-7
	c0-1.4-0.9-2.1-2.8-2.1c-0.8,0-1.7,0-2.7,0.1l-0.5,0v-1.1c1.2-0.1,2.3-0.1,3.3-0.1c1,0,1.8,0.2,2.5,0.5S452.5,674,452.7,674.7z
	 M446.8,683h-1.3v-6.4h1.3V683z M460.6,681.6c-0.1,0.5-0.2,0.9-0.2,1.1v0.3h-1.3v-0.3c0-0.4,0.1-0.9,0.3-1.6
	c0.2-0.7,0.3-1.1,0.4-1.4c0.2-0.6,0.3-1.3,0.6-2l1.1-3.8h-6.1v-1h7.4v1l-1.2,4c-0.1,0.5-0.2,0.9-0.3,1.2c-0.1,0.3-0.2,0.6-0.3,0.9
	c-0.1,0.3-0.2,0.6-0.2,0.8C460.7,681.1,460.7,681.3,460.6,681.6L460.6,681.6z M456.6,686.8h-1.3V677h1.3V686.8z M470.9,672.9v0.9
	c-1.1,0.3-1.6,1.1-1.6,2.2v6.9H468v-6.9c0-0.3,0-0.6,0.1-0.8c0.1-0.3,0.2-0.5,0.3-0.6c0.2-0.3,0.4-0.5,0.6-0.6l0.1-0.1v0h-5.5v-1
	H470.9z M473.1,672.9h5.3v1l-1.4,5.2l-0.8,3.9H475l0.8-3.9l1.4-5.2h-5.3v-3.1h1.3V672.9z M483.7,673.9l3.1-0.9l0.2,1.4l-3,0.2
	l1.9,2.5l-1.3,0.7l-1.4-2.8L482,678l-1.4-0.7l1.9-2.5l-2.9-0.2l0.2-1.4l3.1,0.9l-0.3-3.1h1.5L483.7,673.9z"/>
<path fill="#FFFFFF" d="M433.6,611.4h-4.8v-1.5h4.8V611.4z M441.3,608.2c1.2,0,2.2,0.4,2.8,1.1c0.6,0.7,0.9,1.8,0.9,3.1v8.6h-4.3
	v-1.3h2.7v-7.3c0-1.9-0.9-2.9-2.6-2.9c-0.3,0-0.6,0.1-0.9,0.2c-0.3,0.1-0.5,0.2-0.7,0.4c-0.4,0.3-0.7,0.6-0.9,0.9l-0.1,0.2l-0.9,9.9
	h-1.6l0.9-9.7c0,0,0-0.1,0-0.2c0-0.1,0-0.4-0.1-0.9c-0.1-0.5-0.2-0.9-0.3-1.2l-0.3-0.6h1.6c0.2,0.3,0.3,0.7,0.4,1.3h0.1
	c0.3-0.4,0.7-0.7,1.2-1c0.2-0.1,0.6-0.3,1-0.4C440.4,608.3,440.8,608.2,441.3,608.2z M454,608.4h6.6v1.3l-1.7,6.4l-1,4.9h-1.6l1-4.9
	l1.7-6.4h-6.6v-3.8h1.6V608.4z M462.7,621v-12.6c1.5-0.1,3-0.1,4.3-0.1c1.2,0,2.1,0.2,2.9,0.6c0.8,0.4,1.4,1,1.7,1.9
	c0.2,0.5,0.2,1,0.2,1.6v8.8h-1.6v-8.8c0-1.7-1.2-2.6-3.5-2.6l-2.5,0.1V621H462.7z M484,610.7c0.2,0.5,0.2,1,0.2,1.6v8.8h-1.6v-8.8
	c0-1.7-1.2-2.6-3.5-2.6c-1,0-2.2,0-3.4,0.1l-0.7,0v-1.4c1.5-0.1,2.9-0.1,4.2-0.1s2.3,0.2,3.1,0.6C483.1,609.2,483.7,609.8,484,610.7
	z M476.6,621H475v-8h1.6V621z"/>
<path fill="#FFFFFF" d="M358.1,655.5c-4.2,5.9-10.7,8.8-19.4,8.8c-17.2,0-25.8-12.3-25.8-37c0-12.4,2.1-21.6,6.4-27.5
	c4.2-5.9,10.7-8.8,19.2-8.8c8.6,0,15.1,3.1,19.4,9.3c4.3,6.2,6.5,15.5,6.5,27.9C364.5,640.5,362.4,649.6,358.1,655.5L358.1,655.5z
	 M343.8,644.2c1-3.1,1.5-8.5,1.5-16.5c0-7.9-0.5-13.5-1.5-16.6c-1-3.2-2.7-4.7-5.1-4.7c-2.4,0-4,1.5-5,4.6c-1,3-1.5,8.6-1.5,16.7
	c0,8.1,0.5,13.7,1.5,16.7c1,3,2.7,4.5,5.1,4.5C341.2,648.9,342.9,647.4,343.8,644.2L343.8,644.2z M369.7,660c0-1.2,0.4-2.1,1.1-2.7
	c0.7-0.6,1.7-1,3-1c1.3,0,2.3,0.3,3,1c0.7,0.6,1,1.6,1,2.7c0,1.2-0.4,2.1-1.1,2.8c-0.7,0.7-1.7,1-3,1c-1.3,0-2.3-0.3-3-1
	C370.1,662.1,369.7,661.2,369.7,660z M399,660.2c-1.7,2.3-4.3,3.5-7.7,3.5c-6.9,0-10.3-4.9-10.3-14.7c0-5,0.8-8.6,2.5-11
	c1.7-2.4,4.3-3.5,7.7-3.5c3.4,0,6,1.2,7.7,3.7c1.7,2.5,2.6,6.2,2.6,11.1C401.5,654.2,400.7,657.9,399,660.2L399,660.2z M393.3,655.7
	c0.4-1.2,0.6-3.4,0.6-6.6c0-3.2-0.2-5.4-0.6-6.6c-0.4-1.3-1.1-1.9-2-1.9c-0.9,0-1.6,0.6-2,1.8c-0.4,1.2-0.6,3.4-0.6,6.7
	c0,3.2,0.2,5.5,0.6,6.7c0.4,1.2,1.1,1.8,2,1.8C392.2,657.6,392.9,656.9,393.3,655.7L393.3,655.7z M412.5,645
	c1.2-0.2,2.4-0.4,3.3-0.4c0,0,0.1,0,0.1,0c2.4,0,4.4,0.8,6.1,2.5c1.6,1.7,2.4,3.8,2.4,6.4c0,0.1,0,0.2,0,0.3c0,3.2-1,5.7-2.9,7.3
	c-1.9,1.7-4.8,2.5-8.7,2.5c-3.3,0-6.1-0.5-8.2-1.5v-6.3c1.2,0.5,2.5,1,3.9,1.3c1.4,0.3,2.6,0.5,3.6,0.5c1.4,0,2.5-0.3,3.3-0.9
	c0.8-0.6,1.1-1.5,1.1-2.6c0-1.1-0.4-2-1.2-2.6c-0.8-0.6-2-0.9-3.5-0.9c-1.2,0-2.5,0.2-3.9,0.7l-2.8-1.4l1.1-15h16.2v6.4h-9.7
	L412.5,645z"/>
<path fill="#FFFFFF" d="M434.1,628.9h17.5c5.5,0,9.8,0.8,12.7,2.5c0.9,0.5,1.7,1.1,2.4,1.7c0.6,0.6,1.2,1.2,1.7,2
	c0.5,0.8,0.8,1.5,1.1,2.2c0.3,0.7,0.5,1.5,0.6,2.4c0.2,1.5,0.4,3.1,0.4,4.8v5.9h-9.2v-5.4c0-2.4-0.3-4.1-0.9-5.1
	c-0.3-0.6-0.7-1.1-1.1-1.4c-0.4-0.4-1-0.6-1.7-0.8c-1.1-0.3-2.7-0.5-4.8-0.5h-8.1v27.2h-10.6V628.9z M484.1,628.9v13.7
	c0,2.5-0.2,4.8-0.7,6.9c-0.5,2.1-1.3,4.1-2.4,5.9c-1.1,1.9-2.6,3.5-4.3,4.7c-1.8,1.3-4,2.3-6.6,3.1c-2.7,0.7-5.7,1.1-9.1,1.1h-12.6
	v-22.8h9.5v14.6h3.1c4.9,0,8.3-1.2,10.3-3.6c1-1.2,1.7-2.7,2.1-4.4c0.4-1.7,0.6-3.7,0.6-6.1v-13.2H484.1z"/>
</svg>
